<svg width="32" height="32" viewBox="0 0 32 32" fill="none" xmlns="http://www.w3.org/2000/svg">
<path d="M0.5 3C0.5 1.61929 1.61929 0.5 3 0.5H13C14.3807 0.5 15.5 1.61929 15.5 3V13C15.5 14.3807 14.3807 15.5 13 15.5H3C1.61929 15.5 0.5 14.3807 0.5 13V3Z" transform="scale(2)" stroke="#657786"/>
<path fill-rule="evenodd" clip-rule="evenodd" d="M0 2C0 0.895431 0.895431 0 2 0H14C15.1046 0 16 0.895431 16 2V3H0V2Z" transform="scale(2)" fill="#657786"/>
<path fill-rule="evenodd" clip-rule="evenodd" d="M0 0H2V2H0V0Z" transform="translate(6 10) scale(2)" fill="#657786"/>
<path fill-rule="evenodd" clip-rule="evenodd" d="M0 0H2V2H0V0Z" transform="translate(14 10) scale(2)" fill="#657786"/>
<path fill-rule="evenodd" clip-rule="evenodd" d="M0 0H2V2H0V0Z" transform="translate(22 10) scale(2)" fill="#657786"/>
<path fill-rule="evenodd" clip-rule="evenodd" d="M0 0H2V2H0V0Z" transform="translate(22 16) scale(2)" fill="#657786"/>
<path fill-rule="evenodd" clip-rule="evenodd" d="M0 0H2V2H0V0Z" transform="translate(14 16) scale(2)" fill="#657786"/>
<path fill-rule="evenodd" clip-rule="evenodd" d="M0 0H2V2H0V0Z" transform="translate(6 16) scale(2)" fill="#657786"/>
<path fill-rule="evenodd" clip-rule="evenodd" d="M0 0H2V2H0V0Z" transform="translate(6 22) scale(2)" fill="#657786"/>
<path fill-rule="evenodd" clip-rule="evenodd" d="M0 0H2V2H0V0Z" transform="translate(14 22) scale(2)" fill="#657786"/>
</svg>
